<svg xmlns="http://www.w3.org/2000/svg" viewBox="0 0 400 400" width="400" height="400">
  <!-- Santa Hat -->
  <path d="M 200 50 L 120 180 L 280 180 Z" fill="#DC2626" stroke="#991B1B" stroke-width="3"/>
  <ellipse cx="200" cy="45" rx="30" ry="15" fill="#FFF" />
  <circle cx="200" cy="50" r="20" fill="#FFF" />

  <!-- Face -->
  <ellipse cx="200" cy="250" rx="120" ry="140" fill="#FBBF77" />

  <!-- Beard -->
  <ellipse cx="200" cy="320" rx="130" ry="100" fill="#FFF" />
  <path d="M 70 250 Q 60 300 80 350 Q 100 380 140 390" fill="#FFF" />
  <path d="M 330 250 Q 340 300 320 350 Q 300 380 260 390" fill="#FFF" />

  <!-- Mustache -->
  <ellipse cx="200" cy="180" rx="140" ry="25" fill="#FFF" />

  <!-- Eyes -->
  <ellipse cx="160" cy="200" rx="35" ry="40" fill="#FFF" />
  <ellipse cx="240" cy="200" rx="35" ry="40" fill="#FFF" />
  
  <!-- Eye pupils (static, centered) -->
  <circle cx="160" cy="200" r="18" fill="#1F2937" />
  <circle cx="165" cy="195" r="6" fill="#FFF" />
  <circle cx="240" cy="200" r="18" fill="#1F2937" />
  <circle cx="245" cy="195" r="6" fill="#FFF" />

  <!-- Nose -->
  <ellipse cx="200" cy="240" rx="20" ry="25" fill="#EF4444" />
  <ellipse cx="205" cy="235" rx="6" ry="8" fill="#FCA5A5" opacity="0.6" />

  <!-- Mouth -->
  <path d="M 170 280 Q 200 295 230 280" fill="none" stroke="#DC2626" stroke-width="4" stroke-linecap="round" />

</svg>

